<?xml version="1.0" encoding="UTF-8"?>
<svg id="Layer_1" data-name="Layer 1" xmlns="http://www.w3.org/2000/svg" viewBox="0 0 336 276">
  <defs>
    <style>
      .cls-1 {
        fill: #18181b;
      }

      .cls-2 {
        fill: #5a4030;
      }

      .cls-3 {
        fill: #6b3f1e;
      }

      .cls-4 {
        fill: #3f3f46;
      }

      .cls-5 {
        fill: none;
        stroke: #f59e0b;
        stroke-linecap: round;
        stroke-miterlimit: 12;
        stroke-width: 25px;
      }

      .cls-6 {
        fill: #3c2a1e;
      }

      .cls-7 {
        fill: #3a332d;
      }

      .cls-8 {
        fill: #b45309;
      }

      .cls-9 {
        fill: #e8b89b;
      }

      .cls-10 {
        fill: #0f172a;
      }

      .cls-11 {
        fill: #ff0;
      }

      .cls-12 {
        fill: #e5e7eb;
      }
    </style>
  </defs>
  <g id="desk">
    <rect class="cls-7" width="336" height="276" rx="30" ry="30"/>
  </g>
  <g id="coffee">
    <circle class="cls-12" cx="66" cy="78" r="21"/>
    <circle class="cls-3" cx="66" cy="78" r="13.5"/>
  </g>
  <g id="laptop">
    <rect class="cls-4" x="84" y="174" width="168" height="39" rx="12" ry="12"/>
    <rect class="cls-1" x="93" y="156" width="150" height="90" rx="12" ry="12"/>
    <rect class="cls-10" x="105" y="168" width="126" height="66" rx="6" ry="6"/>
  </g>
  <g id="body">
    <rect class="cls-9" x="157.5" y="72" width="21" height="33" rx="9" ry="9"/>
    <path id="shoulders" class="cls-11" d="M98.93,118.11c.43-18.78,4.98-26.64,26.96-30.61,1.88-.34,3.79-.5,5.7-.5h72.84c1.91,0,3.82.16,5.7.5,21.98,3.97,26.29,8.12,26.29,26.9,0,6.26-15.8,18.58-18.67,23.59l-8.15,24.7c-5.01,8.77,3.28,12.49-6.75,13.7-23.23,2.8-46.79,4.85-69.68,0-8.01-1.7.74-2.97-4.27-11.75l-4.19-25.65c-2.87-5.02-25.91-15.11-25.78-20.89Z"/>
    <path id="collar" class="cls-8" d="M140.63,85.79l26.74,39.73,30.22-41.48-19.09,2.96-10.5,21-10.5-21-16.87-1.21Z"/>
  </g>
  <g id="arms">
    <path class="cls-5" d="M117,111l18,69"/>
    <path class="cls-5" d="M219,111l-18,69"/>
  </g>
  <g id="hands">
    <circle class="cls-9" cx="135" cy="180" r="13.5"/>
    <circle class="cls-9" cx="201" cy="180" r="13.5"/>
  </g>
  <g id="head">
    <path class="cls-6" d="M171.07,20.78c6.51,0,7.87,11.11,15.7,8.89,10.96-3.11,18.76,14.27,11.22,24.33-12.85,17.15-12.73,28.41-29.3,28.41s-17.78-10.41-30.7-28.41c-7.31-10.18.49-13.1,5.22-24.19,3.19-7.48,21.31-9.04,27.85-9.04Z"/>
    <path class="cls-2" d="M156.87,24.93c5.83-1.24,6.53,8.65,11.13,14.52,3.07,3.92,11.68.99,9.44,6.52-5.04,12.44.38,29.72-9.35,31.78s-15.41-6.09-18.51-20.67c-1.55-7.29-7.96-12.3-2.52-16.15,4.79-3.39,4.94-14.97,9.8-16Z"/>
    <path class="cls-9" d="M168,61.52c5.04,0,9.54-5.27,12.57-2.36,2.45,2.36,3.93,5.41,3.93,8.74,0,5.45-4,13.96-9.69,16.09-2.09.78-8.96,0-11.41,0-9.11,0-11.91-8.64-11.91-16.09,0-3.16,1.33-6.07,3.55-8.37,3.02-3.13,7.7,1.98,12.95,1.98Z"/>
  </g>
</svg>